<svg aria-hidden="true" style="width:0;height:0;position:absolute;overflow:hidden" xmlns="http://www.w3.org/2000/svg"><defs><symbol id="icon-github" viewBox="0 0 32 32"><path d="M16 3C8.82 3 3 8.82 3 16c0 6.139 4.256 11.28 9.977 12.643-.296-.07-.589-.149-.877-.239v-2.979s-.488.163-1.137.163c-1.819 0-2.574-1.622-2.763-2.438a2.529 2.529 0 0 0-.734-1.255c-.383-.342-.563-.343-.566-.46-.005-.245.329-.235.487-.235.813 0 1.428.864 1.714 1.311.709 1.104 1.469 1.288 1.861 1.288.488 0 .909-.073 1.198-.213.134-.944.554-1.785 1.239-2.387-3.049-.61-5.2-2.358-5.2-5.2 0-1.464.588-2.809 1.566-3.896-.1-.284-.267-.857-.267-1.791 0-.617.043-1.376.325-2.113 0 0 1.854.013 3.603 1.669.807-.235 1.671-.369 2.572-.369s1.766.134 2.572.369c1.748-1.656 3.602-1.669 3.602-1.669.284.737.325 1.495.325 2.113 0 1.008-.134 1.595-.216 1.848.949 1.076 1.516 2.401 1.516 3.839 0 2.842-2.151 4.59-5.2 5.2.814.715 1.3 1.756 1.3 2.925v4.279c-.288.09-.581.169-.878.239 5.721-1.363 9.977-6.505 9.977-12.643 0-7.18-5.82-13-13-13zm.907 25.965zm1.986-.292zM16 29zm-1.106-.05z"/></symbol></defs></svg>