<svg aria-hidden="true" style="position: absolute; width: 0; height: 0; overflow: hidden;" version="1.1" xmlns="http://www.w3.org/2000/svg" xmlns:xlink="http://www.w3.org/1999/xlink">
<defs>
<symbol id="icon-github" viewBox="0 0 32 32">
<path d="M16 3c-7.18 0-13 5.82-13 13 0 6.139 4.256 11.28 9.977 12.643-0.296-0.070-0.589-0.149-0.877-0.239v-2.979c0 0-0.488 0.163-1.137 0.163-1.819 0-2.574-1.622-2.763-2.438-0.114-0.497-0.413-0.967-0.734-1.255-0.383-0.342-0.563-0.343-0.566-0.46-0.005-0.245 0.329-0.235 0.487-0.235 0.813 0 1.428 0.864 1.714 1.311 0.709 1.104 1.469 1.288 1.861 1.288 0.488 0 0.909-0.073 1.198-0.213 0.134-0.944 0.554-1.785 1.239-2.387-3.049-0.61-5.2-2.358-5.2-5.2 0-1.464 0.588-2.809 1.566-3.896-0.1-0.284-0.267-0.857-0.267-1.791 0-0.617 0.043-1.376 0.325-2.113 0 0 1.854 0.013 3.603 1.669 0.807-0.235 1.671-0.369 2.572-0.369s1.766 0.134 2.572 0.369c1.748-1.656 3.602-1.669 3.602-1.669 0.284 0.737 0.325 1.495 0.325 2.113 0 1.008-0.134 1.595-0.216 1.848 0.949 1.076 1.516 2.401 1.516 3.839 0 2.842-2.151 4.59-5.2 5.2 0.814 0.715 1.3 1.756 1.3 2.925v4.279c-0.288 0.090-0.581 0.169-0.878 0.239 5.721-1.363 9.977-6.505 9.977-12.643 0-7.18-5.82-13-13-13zM16.907 28.965c-0.299 0.021-0.602 0.035-0.907 0.035 0.305 0 0.607-0.015 0.907-0.035zM18.893 28.673c-0.582 0.133-1.178 0.226-1.788 0.277 0.609-0.052 1.206-0.145 1.788-0.277zM16 29c-0.305 0-0.607-0.014-0.906-0.035 0.3 0.020 0.601 0.035 0.906 0.035zM14.894 28.95c-0.608-0.052-1.206-0.145-1.787-0.277 0.582 0.132 1.178 0.226 1.787 0.277z"></path>
</symbol>
</defs>
</svg>
